<svg xmlns="http://www.w3.org/2000/svg" viewBox="0 0 600 500"><g fill="none" stroke-width="2"><path stroke="gray" d="M589 27.33A10.33 10.33 0 0 0 578.67 17H23.33A10.33 10.33 0 0 0 13 27.33v447.34A10.33 10.33 0 0 0 23.33 485h555.34A10.33 10.33 0 0 0 589 474.67V27.33" vector-effect="non-scaling-stroke"/><path stroke="#696a6b" d="m137 152.79 41.12.19" vector-effect="non-scaling-stroke"/><path stroke="gray" d="m178.12 152.98.16 128.47a.55.47 90 0 0 .47.55h72a.5.5 0 0 0 .5-.5V153.25a1.12.69 25.7 0 0-.48-.75l-71.93-53.85A3.33 2.76 59.1 0 0 177 98h-71.75a.5.5 0 0 0-.5.5v53.75a.53.47 0 0 0 .53.47l31.72.07" vector-effect="non-scaling-stroke"/><path stroke="#e9e9ea" d="m178.12 152.98-.11-51.5q-.01-3.45-2.07-.7L137 152.79" vector-effect="non-scaling-stroke"/><path stroke="#696a6b" d="M284 152.79q20.21.53 40.9-.01" vector-effect="non-scaling-stroke"/><path stroke="gray" d="m324.9 152.78.13 128.67a.55.47 90 0 0 .47.55h72.25a.5.5 0 0 0 .5-.5V154.31a2.76 2.7-72.2 0 0-1.1-2.2l-71.65-53.6a1.49.37 40.9 0 0-.94-.48l-72.31-.05a.52.46 0 0 0-.52.46l.03 53.81a.52.47 0 0 0 .52.47l31.72.07" vector-effect="non-scaling-stroke"/><path stroke="#e9e9ea" d="m324.9 152.78-.17-52.45q-.01-2.25-1.36-.45L284.97 151a.97.75 54.8 0 0-.04.9q.47 1.05-.93.89" vector-effect="non-scaling-stroke"/><path stroke="gray" d="M471.5 98.38a.35.35 0 0 0-.35-.35h-72.3a.35.35 0 0 0-.35.35v54.02a.35.35 0 0 0 .35.35h72.3a.35.35 0 0 0 .35-.35V98.38M493.012 108.356a6.91 6.67 5.2 0 0-6.277-7.268 6.91 6.67 5.2 0 0-7.487 6.016 6.91 6.67 5.2 0 0 6.278 7.269 6.91 6.67 5.2 0 0 7.486-6.017" vector-effect="non-scaling-stroke"/><path stroke="#5c5c5d" d="M160.75 355.75v-19a.5.44 0 0 0-.5-.44l-3.25-.01a.61.41-89.3 0 0-.41.6c-.31 16.89.49 35.7-.13 54.29a.6.53-89.4 0 0 .54.62l3.26-.07a.7.57 88.6 0 0 .56-.72q-.34-13.9.19-27.76c.45-11.47 16.04-14.34 16.38-2.26q.5 18.22.21 30.19a.62.35-88.6 0 0 .34.64h3.37a.86.42 90 0 0 .42-.86q.12-24.21-.04-31.41c-.1-4.48-2.32-8.1-6.86-9.3q-8.55-2.26-13.75 5.52-.33.5-.33-.03M326.288 336.754a.35.35 0 0 0-.35-.35l-3.56-.007a.35.35 0 0 0-.35.35l-.096 54.74a.35.35 0 0 0 .35.35l3.56.006a.35.35 0 0 0 .35-.35l.096-54.74M386.41 336.32a.35.35-.1 0 1 .35.35l-.01 34.18a.35.35-25.6 0 0 .63.22l15.76-20.19a.35.35 19.9 0 1 .27-.13l4.47-.01a.35.35-70.5 0 1 .27.57l-11.71 14.39a.35.35 49.7 0 0-.03.4l14.28 25.14a.35.35-16 0 1-.3.52l-4.6-.01a.35.35 75.5 0 1-.3-.18l-12.07-21.34a.35.35-39.8 0 0-.57-.05l-6.03 7.25a.35.35-25.8 0 0-.08.23l.01 13.83a.35.35.5 0 1-.36.35l-3.55-.05a.35.35 89.8 0 1-.34-.35l-.01-54.72a.35.35-.3 0 1 .35-.35l3.57-.05M146 354.25h6.25a.66.45.8 0 0 .65-.43l.14-2.57a.78.48.6 0 0-.79-.5H146a.75.5 90 0 1-.5-.75v-10.25a.5.5 0 0 0-.5-.5h-3.25a.5.5 0 0 0-.5.5V350a.75.5-90 0 1-.5.75H136a.5.5 0 0 0-.5.5v2.5a.5.5 0 0 0 .5.5h4.25a1.06 1 .5 0 1 1.06 1.02q-.23 15.62.11 30.16c.16 6.75 5.16 7.21 10.55 6.61a1.04.4-5.1 0 0 .95-.47l.08-2.75a.76.41-10.6 0 0-.92-.29q-6.42 1.69-6.58-4.51-.12-4.71.06-29.2a.57.44-90 0 1 .44-.57M341.24 387.78a2.58 2.48 16.4 0 1-1.12-1.96q-.69-15.54-.18-31.07a.56.52 1.1 0 1 .56-.5h6a.75.5 0 0 0 .75-.5v-2.5a.75.5 0 0 0-.75-.5h-5.75a.85.74.3 0 1-.85-.75l.14-10.25a.54.49.5 0 0-.54-.5h-3.25a.5.5 0 0 0-.5.5V350a.75.5-90 0 1-.5.75h-4.5a.76.49-.3 0 0-.76.5l.04 2.69a.97.31 0 0 0 .97.31h4.25a.78.49 90 0 1 .49.78q.01 14.86.01 29.74c.01 7.88 4.56 7.37 10.73 7.21a.8.47-1.7 0 0 .77-.48v-2.76a.59.42-12.3 0 0-.77-.33q-2.83 1-5.24-.63M187.9 363c-1.65 8.82-2.05 28.25 11.11 29.44 8.99.81 14.09-4.95 14.8-13.28a.61.57-87.7 0 0-.56-.66H210a.74.38-85.3 0 0-.42.68c-.43 4.26-2.62 8.69-7 9.79-9.4 2.36-11.41-11.01-10.7-17.15a.65.62-86.3 0 1 .62-.57h21.25a.52.49-88.8 0 0 .49-.5c.54-9.39-1.47-22.16-14.39-20.91-7.35.72-10.64 6.18-11.95 13.16M223.94 356.31l.08-5.06a.52.49.5 0 0-.52-.5h-3.25a.5.5 0 0 0-.5.5v40a.61.43 89.6 0 0 .44.61l3.31-.14a.7.54 89.2 0 0 .52-.69q-.07-10.55 0-21.08c.06-8.98 1.3-15.91 11.65-15.9a.57.56 0 0 0 .57-.56l.01-2.99a.73.72 0 0 0-.74-.73q-7.47 0-10.7 6.54a.49.15-14.4 0 1-.31.19l-.19.07a.28.27-9 0 1-.37-.26M243.74 356l.01-4.5a.74.5-89.5 0 0-.5-.75h-3a.5.36 90 0 0-.36.5l.16 40a.55.49 89.5 0 0 .5.55l1.99-.05a1.81 1.46-1.8 0 0 1.78-1.53q-.62-12.87-.12-25.16c.21-5.16 1.16-9 5.85-11.1 6.77-3.04 9.33 2.77 9.42 8.5q.23 14.36.23 28.75a.69.35 89.4 0 0 .37.7l3.18-.2a.68.62 87.8 0 0 .58-.69q-.36-13.71.19-27.39.16-3.93 1.37-6.02c3.78-6.55 12.99-5.86 13.65 2.87.75 10.11.17 20.66.27 30.84a.66.46 1.8 0 0 .63.47l3.06.17a.65.4-89.2 0 0 .42-.66q.32-26.28.01-31.61c-.7-12.46-15.18-13.04-19.45-3.47q-.79 1.77-1.12-.14c-.57-3.32-3.09-5.59-6.48-6.06q-7.86-1.08-12.3 5.98-.34.55-.34 0M309.83 386.73q.43 6.9 7.44 5.13a.81.54-87.8 0 0 .45-.62l.31-1.98a.65.37 2.6 0 0-.67-.42q-3.22-.04-3.26-3.39-.12-12.86-.17-25.69c-.07-14.58-24.83-13.37-23.92 2.47a.51.39-.4 0 0 .49.37l2.5.05a1.22.93 1.5 0 0 1.23-.88c.72-13.3 19.54-10.32 14.99 2.98q-.62 1.79-2.44 2.28c-7.03 1.89-16.94 2.94-17.94 11.95q-1.47 13.3 9.97 13.61c4.82.13 8.27-1.74 10.63-5.84q.36-.61.39-.02M370.7 386.74q.24 6.25 6.4 5.31c1.73-.26 2.1-1.36 1.54-2.86a.77.67-9.7 0 0-.71-.43q-2.98.05-2.95-2.74.11-10.54-.04-21.04c-.1-7.19.12-13.08-7.4-14.75q-15.09-3.35-16.84 11.45a.8.36-84.4 0 0 .3.88l3.5-.07a.86.61-87.7 0 0 .61-.79q.75-9.81 10.58-8.11 2.84.49 3.85 2.66 2.11 4.54.26 9.26a1.37 1.26-2.1 0 1-.74.73c-7.71 3.13-19.23 3.01-19.5 14.26q-.3 12.49 10.83 12.08c4.62-.18 7.64-1.7 9.52-5.92q.12-.26.35-.34a.43.33 81.1 0 1 .44.42" vector-effect="non-scaling-stroke"/><path stroke="#5c5c5d" d="M416.44 390.31c9.41 6.71 20.12-.67 20.67-11.32a.46.37-87.9 0 0-.36-.49h-3.25a.62.58-85.4 0 0-.58.53c-.95 6.51-6.78 14.23-13.79 8.11-3.75-3.27-4.17-10.26-4.1-15.06a.97.84.3 0 1 .97-.83h21.25a.52.45 90 0 0 .45-.52c.04-7-.5-17.4-8.59-20.19-21.84-7.52-22.94 32.45-12.67 39.77" vector-effect="non-scaling-stroke"/><path stroke="gray" d="M491.42 107.72a5.3 5.3 0 0 0-5.3-5.3 5.3 5.3 0 0 0-5.3 5.3 5.3 5.3 0 0 0 5.3 5.3 5.3 5.3 0 0 0 5.3-5.3" vector-effect="non-scaling-stroke"/><path stroke="gray" d="M484.75 110.56q1.22-2 .52-4.03a.53.47-15.3 0 1 .41-.63q2.09-.46.94 1.3a1 .1-56 0 0-.45.84l1.48 2.52q.49.84.97-.03.75-1.35-.7-2.24a.57.25-44 0 1 .26-.64c2.8-2.46-2.27-3.1-3.96-2.53a.7.59-12.2 0 0-.48.63l.31 4.49q.1 1.31.7.32" vector-effect="non-scaling-stroke"/><path stroke="#5c5c5d" d="M205.16 354.6c-9.71-5.4-13.62 5.18-13.26 12.54a.64.6 88.5 0 0 .6.61H209a.76.5 0 0 0 .76-.5q-.06-4.81-1.68-9.31-.77-2.14-2.92-3.34M295.64 374.61c-6.66 6.35.93 19.58 9.58 12.99 5.56-4.24 4.67-12.23 4.49-18.3a.33.33 76.4 0 0-.47-.29c-4.13 1.91-10.83 2.96-13.6 5.6M357.45 388.07q1.95 1.6 4.42 1.1c9.84-1.99 9-12.08 8.76-19.74a.34.34 78.3 0 0-.47-.31q-5.06 2.09-10.29 3.67c-7.03 2.12-7.49 11.13-2.42 15.28M415.25 367.69l17.25.03a.7.47 89.4 0 0 .47-.71c-.03-7.52-2.85-16.53-12.5-12.99q-2.38.88-3.44 3.29-2.07 4.72-1.98 9.94a.45.19 88.9 0 0 .2.44" vector-effect="non-scaling-stroke"/></g><path fill="#fff" d="M0 0h600v500H0V0Zm589 27.33A10.33 10.33 0 0 0 578.67 17H23.33A10.33 10.33 0 0 0 13 27.33v447.34A10.33 10.33 0 0 0 23.33 485h555.34A10.33 10.33 0 0 0 589 474.67V27.33Z"/><path d="M589 474.67A10.33 10.33 0 0 1 578.67 485H23.33A10.33 10.33 0 0 1 13 474.67V27.33A10.33 10.33 0 0 1 23.33 17h555.34A10.33 10.33 0 0 1 589 27.33v447.34ZM137 152.79l41.12.19.16 128.47a.55.47 90 0 0 .47.55h72a.5.5 0 0 0 .5-.5V153.25a1.12.69 25.7 0 0-.48-.75l-71.93-53.85A3.33 2.76 59.1 0 0 177 98h-71.75a.5.5 0 0 0-.5.5v53.75a.53.47 0 0 0 .53.47l31.72.07Zm147 0q20.21.53 40.9-.01l.13 128.67a.55.47 90 0 0 .47.55h72.25a.5.5 0 0 0 .5-.5V154.31a2.76 2.7-72.2 0 0-1.1-2.2l-71.65-53.6a1.49.37 40.9 0 0-.94-.48l-72.31-.05a.52.46 0 0 0-.52.46l.03 53.81a.52.47 0 0 0 .52.47l31.72.07Zm187.5-54.41a.35.35 0 0 0-.35-.35h-72.3a.35.35 0 0 0-.35.35v54.02a.35.35 0 0 0 .35.35h72.3a.35.35 0 0 0 .35-.35V98.38Zm21.512 9.976a6.91 6.67 5.2 0 0-6.277-7.268 6.91 6.67 5.2 0 0-7.487 6.016 6.91 6.67 5.2 0 0 6.278 7.269 6.91 6.67 5.2 0 0 7.486-6.017ZM160.75 355.75v-19a.5.44 0 0 0-.5-.44l-3.25-.01a.61.41-89.3 0 0-.41.6c-.31 16.89.49 35.7-.13 54.29a.6.53-89.4 0 0 .54.62l3.26-.07a.7.57 88.6 0 0 .56-.72q-.34-13.9.19-27.76c.45-11.47 16.04-14.34 16.38-2.26q.5 18.22.21 30.19a.62.35-88.6 0 0 .34.64h3.37a.86.42 90 0 0 .42-.86q.12-24.21-.04-31.41c-.1-4.48-2.32-8.1-6.86-9.3q-8.55-2.26-13.75 5.52-.33.5-.33-.03Zm165.538-18.996a.35.35 0 0 0-.35-.35l-3.56-.007a.35.35 0 0 0-.35.35l-.096 54.74a.35.35 0 0 0 .35.35l3.56.006a.35.35 0 0 0 .35-.35l.096-54.74Zm60.122-.434a.35.35-.1 0 1 .35.35l-.01 34.18a.35.35-25.6 0 0 .63.22l15.76-20.19a.35.35 19.9 0 1 .27-.13l4.47-.01a.35.35-70.5 0 1 .27.57l-11.71 14.39a.35.35 49.7 0 0-.03.4l14.28 25.14a.35.35-16 0 1-.3.52l-4.6-.01a.35.35 75.5 0 1-.3-.18l-12.07-21.34a.35.35-39.8 0 0-.57-.05l-6.03 7.25a.35.35-25.8 0 0-.08.23l.01 13.83a.35.35.5 0 1-.36.35l-3.55-.05a.35.35 89.8 0 1-.34-.35l-.01-54.72a.35.35-.3 0 1 .35-.35l3.57-.05ZM146 354.25h6.25a.66.45.8 0 0 .65-.43l.14-2.57a.78.48.6 0 0-.79-.5H146a.75.5 90 0 1-.5-.75v-10.25a.5.5 0 0 0-.5-.5h-3.25a.5.5 0 0 0-.5.5V350a.75.5-90 0 1-.5.75H136a.5.5 0 0 0-.5.5v2.5a.5.5 0 0 0 .5.5h4.25a1.06 1 .5 0 1 1.06 1.02q-.23 15.62.11 30.16c.16 6.75 5.16 7.21 10.55 6.61a1.04.4-5.1 0 0 .95-.47l.08-2.75a.76.41-10.6 0 0-.92-.29q-6.42 1.69-6.58-4.51-.12-4.71.06-29.2a.57.44-90 0 1 .44-.57Zm195.24 33.53a2.58 2.48 16.4 0 1-1.12-1.96q-.69-15.54-.18-31.07a.56.52 1.1 0 1 .56-.5h6a.75.5 0 0 0 .75-.5v-2.5a.75.5 0 0 0-.75-.5h-5.75a.85.74.3 0 1-.85-.75l.14-10.25a.54.49.5 0 0-.54-.5h-3.25a.5.5 0 0 0-.5.5V350a.75.5-90 0 1-.5.75h-4.5a.76.49-.3 0 0-.76.5l.04 2.69a.97.31 0 0 0 .97.31h4.25a.78.49 90 0 1 .49.78q.01 14.86.01 29.74c.01 7.88 4.56 7.37 10.73 7.21a.8.47-1.7 0 0 .77-.48v-2.76a.59.42-12.3 0 0-.77-.33q-2.83 1-5.24-.63ZM187.9 363c-1.65 8.82-2.05 28.25 11.11 29.44 8.99.81 14.09-4.95 14.8-13.28a.61.57-87.7 0 0-.56-.66H210a.74.38-85.3 0 0-.42.68c-.43 4.26-2.62 8.69-7 9.79-9.4 2.36-11.41-11.01-10.7-17.15a.65.62-86.3 0 1 .62-.57h21.25a.52.49-88.8 0 0 .49-.5c.54-9.39-1.47-22.16-14.39-20.91-7.35.72-10.64 6.18-11.95 13.16Zm36.04-6.69.08-5.06a.52.49.5 0 0-.52-.5h-3.25a.5.5 0 0 0-.5.5v40a.61.43 89.6 0 0 .44.61l3.31-.14a.7.54 89.2 0 0 .52-.69q-.07-10.55 0-21.08c.06-8.98 1.3-15.91 11.65-15.9a.57.56 0 0 0 .57-.56l.01-2.99a.73.72 0 0 0-.74-.73q-7.47 0-10.7 6.54a.49.15-14.4 0 1-.31.19l-.19.07a.28.27-9 0 1-.37-.26Zm19.8-.31.01-4.5a.74.5-89.5 0 0-.5-.75h-3a.5.36 90 0 0-.36.5l.16 40a.55.49 89.5 0 0 .5.55l1.99-.05a1.81 1.46-1.8 0 0 1.78-1.53q-.62-12.87-.12-25.16c.21-5.16 1.16-9 5.85-11.1 6.77-3.04 9.33 2.77 9.42 8.5q.23 14.36.23 28.75a.69.35 89.4 0 0 .37.7l3.18-.2a.68.62 87.8 0 0 .58-.69q-.36-13.71.19-27.39.16-3.93 1.37-6.02c3.78-6.55 12.99-5.86 13.65 2.87.75 10.11.17 20.66.27 30.84a.66.46 1.8 0 0 .63.47l3.06.17a.65.4-89.2 0 0 .42-.66q.32-26.28.01-31.61c-.7-12.46-15.18-13.04-19.45-3.47q-.79 1.77-1.12-.14c-.57-3.32-3.09-5.59-6.48-6.06q-7.86-1.08-12.3 5.98-.34.55-.34 0Zm66.09 30.73q.43 6.9 7.44 5.13a.81.54-87.8 0 0 .45-.62l.31-1.98a.65.37 2.6 0 0-.67-.42q-3.22-.04-3.26-3.39-.12-12.86-.17-25.69c-.07-14.58-24.83-13.37-23.92 2.47a.51.39-.4 0 0 .49.37l2.5.05a1.22.93 1.5 0 0 1.23-.88c.72-13.3 19.54-10.32 14.99 2.98q-.62 1.79-2.44 2.28c-7.03 1.89-16.94 2.94-17.94 11.95q-1.47 13.3 9.97 13.61c4.82.13 8.27-1.74 10.63-5.84q.36-.61.39-.02Zm60.87.01q.24 6.25 6.4 5.31c1.73-.26 2.1-1.36 1.54-2.86a.77.67-9.7 0 0-.71-.43q-2.98.05-2.95-2.74.11-10.54-.04-21.04c-.1-7.19.12-13.08-7.4-14.75q-15.09-3.35-16.84 11.45a.8.36-84.4 0 0 .3.88l3.5-.07a.86.61-87.7 0 0 .61-.79q.75-9.81 10.58-8.11 2.84.49 3.85 2.66 2.11 4.54.26 9.26a1.37 1.26-2.1 0 1-.74.73c-7.71 3.13-19.23 3.01-19.5 14.26q-.3 12.49 10.83 12.08c4.62-.18 7.64-1.7 9.52-5.92q.12-.26.35-.34a.43.33 81.1 0 1 .44.42Zm45.74 3.57c9.41 6.71 20.12-.67 20.67-11.32a.46.37-87.9 0 0-.36-.49h-3.25a.62.58-85.4 0 0-.58.53c-.95 6.51-6.78 14.23-13.79 8.11-3.75-3.27-4.17-10.26-4.1-15.06a.97.84.3 0 1 .97-.83h21.25a.52.45 90 0 0 .45-.52c.04-7-.5-17.4-8.59-20.19-21.84-7.52-22.94 32.45-12.67 39.77Z"/><path fill="#fff" d="m178.12 152.98-.11-51.5q-.01-3.45-2.07-.7L137 152.79l-31.72-.07a.53.47 0 0 1-.53-.47V98.5a.5.5 0 0 1 .5-.5H177a3.33 2.76 59.1 0 1 1.84.65l71.93 53.85a1.12.69 25.7 0 1 .48.75V281.5a.5.5 0 0 1-.5.5h-72a.55.47-90 0 1-.47-.55l-.16-128.47ZM324.9 152.78l-.17-52.45q-.01-2.25-1.36-.45L284.97 151a.97.75 54.8 0 0-.04.9q.47 1.05-.93.89l-31.72-.07a.52.47 0 0 1-.52-.47l-.03-53.81a.52.46 0 0 1 .52-.46l72.31.05a1.49.37 40.9 0 1 .94.48l71.65 53.6a2.76 2.7-72.2 0 1 1.1 2.2V281.5a.5.5 0 0 1-.5.5H325.5a.55.47-90 0 1-.47-.55l-.13-128.67Z"/><rect width="73" height="54.72" x="398.5" y="98.03" fill="#fff" rx=".35"/><path fill="#d2d3d5" d="m178.12 152.98-41.12-.19 38.94-52.01q2.06-2.75 2.07.7l.11 51.5ZM324.9 152.78q-20.69.54-40.9.01 1.4.16.93-.89a.97.75 54.8 0 1 .04-.9l38.4-51.12q1.35-1.8 1.36.45l.17 52.45Z"/><path fill="#fff" d="M493.012 108.356a6.91 6.67 5.2 0 1-7.486 6.017 6.91 6.67 5.2 0 1-6.278-7.27 6.91 6.67 5.2 0 1 7.487-6.015 6.91 6.67 5.2 0 1 6.277 7.268Zm-1.592-.636a5.3 5.3 0 0 0-5.3-5.3 5.3 5.3 0 0 0-5.3 5.3 5.3 5.3 0 0 0 5.3 5.3 5.3 5.3 0 0 0 5.3-5.3Z"/><path d="M491.42 107.72a5.3 5.3 0 0 1-5.3 5.3 5.3 5.3 0 0 1-5.3-5.3 5.3 5.3 0 0 1 5.3-5.3 5.3 5.3 0 0 1 5.3 5.3Zm-6.67 2.84q1.22-2 .52-4.03a.53.47-15.3 0 1 .41-.63q2.09-.46.94 1.3a1 .1-56 0 0-.45.84l1.48 2.52q.49.84.97-.03.75-1.35-.7-2.24a.57.25-44 0 1 .26-.64c2.8-2.46-2.27-3.1-3.96-2.53a.7.59-12.2 0 0-.48.63l.31 4.49q.1 1.31.7.32Z"/><path fill="#fff" d="M484.75 110.56q-.6.99-.7-.32l-.31-4.49a.7.59-12.2 0 1 .48-.63c1.69-.57 6.76.07 3.96 2.53a.57.25-44 0 0-.26.64q1.45.89.7 2.24-.48.87-.97.03l-1.48-2.52a1 .1-56 0 1 .45-.84q1.15-1.76-.94-1.3a.53.47-15.3 0 0-.41.63q.7 2.03-.52 4.03Z"/><path fill="#b8b8b9" d="M161.08 355.78q5.2-7.78 13.75-5.52c4.54 1.2 6.76 4.82 6.86 9.3q.16 7.2.04 31.41a.86.42-90 0 1-.42.86h-3.37a.62.35-88.6 0 1-.34-.64q.29-11.97-.21-30.19c-.34-12.08-15.93-9.21-16.38 2.26q-.53 13.86-.19 27.76a.7.57 88.6 0 1-.56.72l-3.26.07a.6.53-89.4 0 1-.54-.62c.62-18.59-.18-37.4.13-54.29a.61.41-89.3 0 1 .41-.6l3.25.01a.5.44 0 0 1 .5.44v19q0 .53.33.03Z"/><rect width="4.26" height="55.44" x="-2.13" y="-27.72" fill="#b8b8b9" rx=".35" transform="rotate(.1 -208463.284 185883.364)"/><path fill="#b8b8b9" d="m387.38 371.07 15.76-20.19a.35.35-71 0 1 .27-.13l4.47-.01a.35.35-70.5 0 1 .27.57l-11.71 14.39a.35.35 49.7 0 0-.03.4l14.28 25.14a.35.35-16 0 1-.3.52l-4.6-.01a.35.35 75.5 0 1-.3-.18l-12.07-21.34a.35.35-40 0 0-.57-.05l-6.03 7.25a.35.35-25.1 0 0-.08.23l.01 13.83a.35.35-89.7 0 1-.36.35l-3.55-.05a.35.35 89.8 0 1-.34-.35l-.01-54.72a.35.35-.3 0 1 .35-.35l3.57-.05a.35.35-.1 0 1 .35.35l-.01 34.18a.35.35 64 0 0 .63.22ZM145.56 354.82q-.18 24.49-.06 29.2.16 6.2 6.58 4.51a.76.41-10.6 0 1 .92.29l-.08 2.75a1.04.4-5.1 0 1-.95.47c-5.39.6-10.39.14-10.55-6.61q-.34-14.54-.11-30.16a1.06 1 .5 0 0-1.06-1.02H136a.5.5 0 0 1-.5-.5v-2.5a.5.5 0 0 1 .5-.5h4.75a.75.5-90 0 0 .5-.75v-10.25a.5.5 0 0 1 .5-.5H145a.5.5 0 0 1 .5.5V350a.75.5 90 0 0 .5.75h6.25a.78.48.6 0 1 .79.5l-.14 2.57a.66.45.8 0 1-.65.43H146a.57.44 90 0 0-.44.57ZM341.24 387.78q2.41 1.63 5.24.63a.59.42-12.3 0 1 .77.33v2.76a.8.47-1.7 0 1-.77.48c-6.17.16-10.72.67-10.73-7.21q0-14.88-.01-29.74a.78.49 90 0 0-.49-.78H331a.97.31 0 0 1-.97-.31l-.04-2.69a.76.49-.3 0 1 .76-.5h4.5a.75.5-90 0 0 .5-.75v-10.25a.5.5 0 0 1 .5-.5h3.25a.54.49.5 0 1 .54.5L339.9 350a.85.74.3 0 0 .85.75h5.75a.75.5 0 0 1 .75.5v2.5a.75.5 0 0 1-.75.5h-6a.56.52 1.1 0 0-.56.5q-.51 15.53.18 31.07a2.58 2.48 16.4 0 0 1.12 1.96ZM199.01 392.44c-13.16-1.19-12.76-20.62-11.11-29.44 1.31-6.98 4.6-12.44 11.95-13.16 12.92-1.25 14.93 11.52 14.39 20.91a.52.49-88.8 0 1-.49.5H192.5a.65.62-86.3 0 0-.62.57c-.71 6.14 1.3 19.51 10.7 17.15 4.38-1.1 6.57-5.53 7-9.79a.74.38-85.3 0 1 .42-.68h3.25a.61.57-87.7 0 1 .56.66c-.71 8.33-5.81 14.09-14.8 13.28Zm6.15-37.84c-9.71-5.4-13.62 5.18-13.26 12.54a.64.6 88.5 0 0 .6.61H209a.76.5 0 0 0 .76-.5q-.06-4.81-1.68-9.31-.77-2.14-2.92-3.34ZM224.31 356.57l.19-.07a.49.15-14.4 0 0 .31-.19q3.23-6.54 10.7-6.54a.73.72 0 0 1 .74.73l-.01 2.99a.57.56 0 0 1-.57.56c-10.35-.01-11.59 6.92-11.65 15.9q-.07 10.53 0 21.08a.7.54 89.2 0 1-.52.69l-3.31.14a.61.43 89.6 0 1-.44-.61v-40a.5.5 0 0 1 .5-.5h3.25a.52.49.5 0 1 .52.5l-.08 5.06a.28.27-9 0 0 .37.26ZM244.08 356q4.44-7.06 12.3-5.98c3.39.47 5.91 2.74 6.48 6.06q.33 1.91 1.12.14c4.27-9.57 18.75-8.99 19.45 3.47q.31 5.33-.01 31.61a.65.4-89.2 0 1-.42.66l-3.06-.17a.66.46 1.8 0 1-.63-.47c-.1-10.18.48-20.73-.27-30.84-.66-8.73-9.87-9.42-13.65-2.87q-1.21 2.09-1.37 6.02-.55 13.68-.19 27.39a.68.62 87.8 0 1-.58.69l-3.18.2a.69.35 89.4 0 1-.37-.7q0-14.39-.23-28.75c-.09-5.73-2.65-11.54-9.42-8.5-4.69 2.1-5.64 5.94-5.85 11.1q-.5 12.29.12 25.16a1.81 1.46-1.8 0 1-1.78 1.53l-1.99.05a.55.49 89.5 0 1-.5-.55l-.16-40a.5.36-90 0 1 .36-.5h3a.74.5-89.5 0 1 .5.75l-.01 4.5q0 .55.34 0ZM309.44 386.75c-2.36 4.1-5.81 5.97-10.63 5.84q-11.44-.31-9.97-13.61c1-9.01 10.91-10.06 17.94-11.95q1.82-.49 2.44-2.28c4.55-13.3-14.27-16.28-14.99-2.98a1.22.93 1.5 0 1-1.23.88l-2.5-.05a.51.39-.4 0 1-.49-.37c-.91-15.84 23.85-17.05 23.92-2.47q.05 12.83.17 25.69.04 3.35 3.26 3.39a.65.37 2.6 0 1 .67.42l-.31 1.98a.81.54-87.8 0 1-.45.62q-7.01 1.77-7.44-5.13-.03-.59-.39.02Zm-13.8-12.14c-6.66 6.35.93 19.58 9.58 12.99 5.56-4.24 4.67-12.23 4.49-18.3a.33.33 76.4 0 0-.47-.29c-4.13 1.91-10.83 2.96-13.6 5.6ZM370.26 386.32q-.23.08-.35.34c-1.88 4.22-4.9 5.74-9.52 5.92q-11.13.41-10.83-12.08c.27-11.25 11.79-11.13 19.5-14.26a1.37 1.26-2.1 0 0 .74-.73q1.85-4.72-.26-9.26-1.01-2.17-3.85-2.66-9.83-1.7-10.58 8.11a.86.61-87.7 0 1-.61.79l-3.5.07a.8.36-84.4 0 1-.3-.88q1.75-14.8 16.84-11.45c7.52 1.67 7.3 7.56 7.4 14.75q.15 10.5.04 21.04-.03 2.79 2.95 2.74a.77.67-9.7 0 1 .71.43c.56 1.5.19 2.6-1.54 2.86q-6.16.94-6.4-5.31a.43.33 81.1 0 0-.44-.42Zm-12.81 1.75q1.95 1.6 4.42 1.1c9.84-1.99 9-12.08 8.76-19.74a.34.34 78.3 0 0-.47-.31q-5.06 2.09-10.29 3.67c-7.03 2.12-7.49 11.13-2.42 15.28Z"/><path fill="#b8b8b9" d="M416.44 390.31c-10.27-7.32-9.17-47.29 12.67-39.77 8.09 2.79 8.63 13.19 8.59 20.19a.52.45-90 0 1-.45.52H416a.97.84.3 0 0-.97.83c-.07 4.8.35 11.79 4.1 15.06 7.01 6.12 12.84-1.6 13.79-8.11a.62.58-85.4 0 1 .58-.53h3.25a.46.37-87.9 0 1 .36.49c-.55 10.65-11.26 18.03-20.67 11.32Zm-1.19-22.62 17.25.03a.7.47 89.4 0 0 .47-.71c-.03-7.52-2.85-16.53-12.5-12.99q-2.38.88-3.44 3.29-2.07 4.72-1.98 9.94a.45.19 88.9 0 0 .2.44Z"/><path d="M205.16 354.6q2.15 1.2 2.92 3.34 1.62 4.5 1.68 9.31a.76.5 0 0 1-.76.5h-16.5a.64.6 88.5 0 1-.6-.61c-.36-7.36 3.55-17.94 13.26-12.54ZM415.25 367.69a.45.19 88.9 0 1-.2-.44q-.09-5.22 1.98-9.94 1.06-2.41 3.44-3.29c9.65-3.54 12.47 5.47 12.5 12.99a.7.47 89.4 0 1-.47.71l-17.25-.03ZM305.22 387.6c-8.65 6.59-16.24-6.64-9.58-12.99 2.77-2.64 9.47-3.69 13.6-5.6a.33.33 76.4 0 1 .47.29c.18 6.07 1.07 14.06-4.49 18.3ZM357.45 388.07c-5.07-4.15-4.61-13.16 2.42-15.28q5.23-1.58 10.29-3.67a.34.34 78.3 0 1 .47.31c.24 7.66 1.08 17.75-8.76 19.74q-2.47.5-4.42-1.1Z"/></svg>